<?xml version="1.0" encoding="utf-8"?>
<!-- Generator: Adobe Illustrator 28.0.0, SVG Export Plug-In . SVG Version: 6.00 Build 0)  -->
<svg version="1.1" id="Layer_1" xmlns="http://www.w3.org/2000/svg" xmlns:xlink="http://www.w3.org/1999/xlink" x="0px" y="0px"
	 viewBox="0 0 210.2 207" style="enable-background:new 0 0 210.2 207;" xml:space="preserve">
<style type="text/css">
	.st0{fill:#FFFFFF;stroke:#E9E9EA;stroke-width:1.6178;stroke-miterlimit:10;}
</style>
<g>
	<path class="st0" d="M105.1,28.3c-20,0-39.1,7.9-53.2,22s-22,33.2-22,53.2s7.9,39.1,22,53.2c14.1,14.1,33.2,22,53.2,22
		s39.1-7.9,53.2-22s22-33.2,22-53.2s-7.9-39.1-22-53.2S125,28.3,105.1,28.3z M105.1,164.1c-16.1,0-31.5-6.4-42.9-17.8
		c-11.4-11.4-17.8-26.8-17.8-42.9S50.8,72,62.2,60.6S89,42.8,105.1,42.8s31.5,6.4,42.9,17.8s17.8,26.8,17.8,42.9
		s-6.4,31.5-17.8,42.9C136.6,157.8,121.2,164.1,105.1,164.1z"/>
	<path class="st0" d="M97.8,112.6L81.1,95.9l-10.3,10.3L92.7,128l0,0c1.4,1.4,3.2,2.1,5.1,2.1s3.8-0.8,5.1-2.1l38.8-38.8l-10.3-10.3
		L97.8,112.6z"/>
</g>
</svg>
