<svg width="300" height="300" viewBox="0 0 300 300" fill="none" xmlns="http://www.w3.org/2000/svg">
<g clip-path="url(#clip0_302_795)">
<path d="M285.658 124.445C284.785 125.827 278.986 130.239 276.003 130.767C275.796 130.808 275.598 130.829 275.421 130.829C273.94 130.829 272.709 130.12 271.722 129.556C271.451 129.401 271.067 129.179 270.765 129.039C269.799 130.425 267.616 135.904 267.616 149.023C267.616 156.389 268.12 160.543 269.113 161.371C269.487 161.686 270.771 161.495 271.94 161.288C273.379 161.04 274.85 161.567 275.79 162.68C276.757 163.828 278.612 166.063 280.14 168.122C282.831 171.763 283.413 173.295 282.639 174.676C282.338 175.204 281.756 175.721 280.914 175.84C280.784 175.861 280.654 175.871 280.509 175.871C280.374 175.871 280.228 175.861 280.077 175.84C279.282 175.721 277.973 175.364 275.998 174.826C270.906 173.434 262.378 171.112 255.706 171.112C252.791 171.112 249.476 171.681 246.405 172.265C245.973 172.348 245.542 172.431 245.121 172.514C244.43 172.648 243.765 172.777 243.126 172.896C238.631 173.734 235.326 174.133 233.367 172.519C232.733 172.001 231.974 171.039 231.974 169.425V160.098C230.197 159.829 228.378 159.565 226.523 159.317V159.327C226.523 159.327 226.492 159.322 226.477 159.317C226.388 159.302 226.305 159.291 226.217 159.276C217.757 158.138 208.528 157.186 198.707 156.446V183.227C203.062 187.712 202.828 194.303 202.552 201.871L202.506 203.257C202.376 207.121 201.576 210.903 200.183 214.24C200.489 216.598 200.448 219.506 200.063 221.792L192.29 267.786C191.401 273.006 187.93 277.692 183.201 280.124C182.837 280.507 182.448 280.874 182.053 281.22C174.372 287.816 165.71 288.53 162.343 288.53C162.109 288.53 161.885 288.525 161.683 288.525C161.293 288.556 160.893 288.571 160.503 288.571C159.324 288.571 158.134 288.432 156.975 288.158L120.917 279.875C114.676 278.432 109.662 273.269 108.43 267.031L99.799 223.277C99.7886 223.23 99.7834 223.184 99.7782 223.137L99.7055 222.791C99.2742 220.664 99.2066 218.476 99.4976 216.324L100.173 211.384L101.285 203.154C98.5571 199.222 97.1592 194.308 97.3411 189.223C97.3619 188.472 97.3775 187.779 97.3879 187.133C97.471 182.818 97.5282 180.102 100.823 176.874C100.755 174.971 100.682 169.498 100.677 156.498C91.173 157.217 82.2404 158.143 74.0197 159.239C73.8534 159.265 73.6923 159.291 73.5261 159.317C73.5105 159.322 73.4949 159.322 73.4793 159.327V159.312C73.4793 159.312 73.4533 159.312 73.4429 159.312C71.6034 159.56 69.795 159.819 68.0283 160.088V169.42C68.0283 171.034 67.2748 171.996 66.6408 172.514C64.6766 174.128 61.3769 173.729 56.882 172.891C56.2377 172.772 55.5725 172.643 54.8866 172.508C54.4605 172.426 54.0344 172.343 53.5979 172.26C50.532 171.676 47.2167 171.106 44.3016 171.106C37.6242 171.106 29.1021 173.429 24.0096 174.821C22.0298 175.359 20.7203 175.716 19.9305 175.835C19.7798 175.855 19.6343 175.866 19.494 175.866C19.3537 175.866 19.2186 175.855 19.0887 175.835C18.252 175.716 17.6649 175.198 17.3687 174.671C16.5892 173.29 17.1712 171.758 19.8681 168.116C21.3907 166.058 23.2458 163.823 24.2175 162.674C25.1529 161.562 26.6286 161.035 28.068 161.283C29.2372 161.49 30.5155 161.681 30.8949 161.366C31.8874 160.538 32.3914 156.384 32.3914 149.017C32.3914 135.899 30.2037 130.42 29.2424 129.034C28.9358 129.174 28.5513 129.396 28.2863 129.551C27.299 130.115 26.0674 130.824 24.5864 130.824C24.4046 130.824 24.2123 130.803 24.0045 130.762C21.0217 130.234 15.2174 125.821 14.3496 124.44C13.9079 123.732 13.8871 122.873 14.2976 122.138C14.6769 121.45 15.3888 120.172 23.7394 118.921C27.5328 118.346 33.8776 117.674 42.7582 117.581V100.634C42.7582 96.8988 45.4344 93.7846 49.129 93.2156C61.4548 91.3326 75.8852 89.8169 86.2728 88.7926V53.6571H95.7458V53.2795C95.751 53.2381 95.7666 52.9536 95.7666 52.9536C95.777 52.8191 95.7822 52.6898 95.7926 52.5501V52.4932C95.8134 52.3018 95.829 52.1518 95.8497 51.9811V51.9086C95.8809 51.6965 95.9017 51.5155 95.9277 51.3189L95.9433 51.2361C95.9745 51.024 96.0056 50.8171 96.0472 50.5998L96.0628 50.5067C96.1044 50.2636 96.1511 50.0618 96.1927 49.8497L96.2083 49.7877C96.2655 49.529 96.3278 49.2859 96.3902 49.0376L96.4213 48.9238C96.4941 48.6651 96.5668 48.4116 96.65 48.1633L96.6968 48.0081C96.7799 47.7598 96.8734 47.5012 96.9774 47.2425L97.0397 47.077C97.1436 46.8183 97.258 46.5545 97.3827 46.2907L97.4658 46.12C97.5957 45.851 97.7412 45.5768 97.8919 45.3078C97.9127 45.2768 97.9491 45.2147 97.9855 45.1526C98.1517 44.8733 98.3284 44.5887 98.5103 44.3301C98.5103 44.3301 98.635 44.1542 98.6558 44.1283C98.0686 42.3281 97.6633 39.8554 98.1414 36.8291C97.5542 35.2927 97.2476 33.6529 97.2476 31.9975C97.2476 24.8276 102.818 18.9976 109.662 18.9976C110.457 18.9976 111.247 19.0803 112.016 19.2355C113.299 19.4942 114.541 19.9598 115.695 20.6271C117.119 20.9737 119.878 21.8531 122.175 23.7982C123.126 23.1205 124.835 22.06 127.09 21.3461C127.896 20.7978 129.268 19.9701 130.873 19.4218H130.879C136.075 14.228 143.262 11 151.196 11C153.088 11 154.938 11.1862 156.725 11.538C162.083 12.5778 166.905 15.1074 170.751 18.6717C172.398 19.0441 174.934 19.8822 177.308 21.8065C178.114 22.1221 179.377 22.6704 180.67 23.4568C182.868 21.7445 185.394 20.9478 186.729 20.6219C188.569 19.5563 190.622 18.9976 192.726 18.9976C193.583 18.9976 194.425 19.0907 195.236 19.2666C200.9 20.4667 205.177 25.7226 205.177 32.0078C205.177 33.658 204.87 35.3031 204.288 36.8343C204.761 39.8606 204.356 42.3333 203.768 44.1335C206.455 47.8167 206.668 52.5035 206.684 53.5951V53.6623H213.735V88.7978C224.123 89.8221 238.548 91.3378 250.874 93.2208C254.568 93.7898 257.244 96.873 257.244 100.603V117.591C266.125 117.684 272.47 118.352 276.268 118.926C284.614 120.178 285.326 121.455 285.71 122.143C286.116 122.878 286.1 123.737 285.658 124.445Z" fill="white"/>
<path d="M253.055 100.644V158.613C229.931 153.063 194.034 149.426 153.528 149.229C152.354 149.229 151.179 149.219 150 149.219C126.351 149.219 102.702 150.916 79.2354 154.304V154.289C78.7106 154.366 78.1857 154.439 77.6609 154.516H77.6401V154.671H77.5985V154.666L75.2861 154.925C65.9066 155.991 56.3972 157.268 46.9814 158.743C46.971 158.743 46.9606 158.748 46.9502 158.748V100.644C46.9502 98.9989 48.1765 97.5712 49.7978 97.3229C62.7836 95.3364 78.1493 93.7586 88.5733 92.7447L90.47 92.5636V57.811H99.9066V53.6363C99.9066 53.6053 99.9066 53.5535 99.9066 53.4966V53.4656C99.9066 53.4035 99.9118 53.3259 99.917 53.238V53.1811C99.9274 53.088 99.9326 52.9897 99.9378 52.881C99.943 52.8552 99.943 52.8293 99.9482 52.8034C99.9586 52.6896 99.969 52.5655 99.9846 52.431C99.9846 52.4051 99.9898 52.3741 99.9898 52.3482C100.005 52.2085 100.026 52.0637 100.047 51.9137C100.052 51.8826 100.057 51.8568 100.057 51.8257C100.083 51.6654 100.109 51.505 100.14 51.3291C100.146 51.3084 100.151 51.2826 100.151 51.2619C100.182 51.0912 100.218 50.9153 100.255 50.7394C100.26 50.7187 100.265 50.6928 100.27 50.6721C100.312 50.4859 100.359 50.2945 100.411 50.1031C100.421 50.0669 100.426 50.0359 100.437 50.0048C100.489 49.8134 100.546 49.622 100.608 49.4254C100.624 49.3892 100.634 49.353 100.645 49.3168C100.707 49.1254 100.78 48.9288 100.858 48.7374C100.868 48.696 100.884 48.6598 100.899 48.6184C100.977 48.427 101.065 48.2304 101.154 48.039C101.169 48.0028 101.19 47.9666 101.206 47.9304C101.299 47.7338 101.403 47.5424 101.507 47.3562C101.528 47.32 101.549 47.289 101.569 47.2527C101.679 47.0613 101.798 46.8751 101.928 46.694C101.949 46.663 101.97 46.6371 101.99 46.6061C102.12 46.4199 102.266 46.2388 102.416 46.0629C102.432 46.0422 102.453 46.0215 102.468 46.0009C102.63 45.825 102.796 45.6491 102.973 45.4836C102.988 45.4732 102.998 45.4629 103.014 45.4525C103.201 45.2818 103.399 45.1214 103.612 44.9714C103.612 44.9714 101.19 41.8003 102.458 36.41L102.484 36.3841C101.798 35.0909 101.408 33.601 101.408 32.0129C101.408 27.0985 105.119 23.1152 109.691 23.1152C110.289 23.1152 110.871 23.1876 111.432 23.317C112.383 23.5446 113.277 23.9481 114.077 24.4912C114.077 24.4912 114.088 24.4912 114.108 24.4912C114.108 24.4964 114.114 24.4964 114.114 24.4964H114.119C114.119 24.4964 114.16 24.5016 114.233 24.5171C115.101 24.693 119.336 25.6966 120.999 28.8004C120.999 28.8004 121.004 28.7952 121.009 28.7901C121.009 28.7901 121.02 28.7849 121.025 28.7797C121.03 28.7901 121.035 28.7952 121.04 28.8056H121.046V28.8004C121.118 28.7332 121.783 28.19 124.085 27.5485C124.085 27.5485 125.982 25.8931 128.949 25.0965C128.949 25.0965 131.012 23.5135 133.117 23.0738H133.169C137.653 18.206 144.086 15.1487 151.221 15.1487C152.925 15.1487 154.588 15.3246 156.199 15.6556C161.032 16.6592 165.345 19.0906 168.681 22.4841C168.686 22.4841 168.707 22.4841 168.722 22.4841C168.722 22.4841 168.728 22.4841 168.728 22.4893C168.806 22.4944 169.164 22.5306 169.699 22.6445C170.967 22.9135 173.197 23.617 175.14 25.3914C175.14 25.3914 177.582 26.1777 179.51 27.6623C179.51 27.6623 180.716 28.0296 181.568 28.4435H181.573C181.573 28.4435 181.599 28.4486 181.61 28.4538C183.6 25.2775 188.334 24.4861 188.334 24.4861C188.973 24.0515 189.674 23.7049 190.412 23.4721C191.155 23.2342 191.94 23.1049 192.756 23.1049C193.317 23.1049 193.868 23.1669 194.398 23.2807C198.165 24.1188 201.002 27.6985 201.002 31.9922C201.002 33.5855 200.608 35.0702 199.927 36.3634L199.953 36.3893C201.216 41.7796 198.799 44.9507 198.799 44.9507C202.343 47.4648 202.499 53.0466 202.504 53.626V57.7955H202.546V57.8058H209.525V92.5585L211.416 92.7395C221.845 93.7534 237.206 95.3312 250.192 97.3177C251.818 97.566 253.044 98.9938 253.044 100.639L253.055 100.644Z" fill="white"/>
<path d="M126.32 246.907C126.694 249.898 127.146 252.877 127.666 255.841C128.185 258.816 128.767 261.775 129.537 264.713C129.547 261.677 129.375 258.666 129.136 255.66C128.892 252.655 128.591 249.654 128.206 246.664C127.832 243.679 127.375 240.695 126.86 237.73C126.341 234.756 125.759 231.797 124.99 228.859C124.979 231.895 125.156 234.906 125.395 237.912C125.634 240.917 125.941 243.917 126.32 246.907Z" fill="white"/>
<path d="M123.904 245.883C123.524 242.903 123.067 239.939 122.548 236.98C122.023 234.027 121.441 231.073 120.666 228.15C120.656 231.171 120.838 234.171 121.077 237.167C121.321 240.162 121.628 243.147 122.012 246.116C122.386 249.096 122.844 252.06 123.363 255.019C123.883 257.983 124.47 260.926 125.244 263.854C125.255 260.828 125.078 257.828 124.839 254.833C124.595 251.837 124.288 248.853 123.904 245.883Z" fill="white"/>
<path d="M130.618 247.688C130.992 250.689 131.439 253.679 131.958 256.664C132.473 259.649 133.05 262.623 133.819 265.577C133.834 262.525 133.663 259.499 133.429 256.483C133.185 253.467 132.888 250.456 132.504 247.456C132.13 244.455 131.683 241.46 131.168 238.475C130.649 235.49 130.072 232.521 129.308 229.567C129.293 232.619 129.464 235.64 129.698 238.661C129.942 241.677 130.243 244.688 130.618 247.688Z" fill="white"/>
<path d="M134.92 248.475C135.284 251.485 135.736 254.491 136.24 257.486C136.754 260.487 137.331 263.471 138.095 266.436C138.116 263.373 137.944 260.337 137.716 257.305C137.477 254.279 137.18 251.258 136.801 248.242C136.427 245.226 135.98 242.22 135.466 239.225C134.951 236.23 134.38 233.24 133.616 230.276C133.6 233.338 133.772 236.375 134 239.406C134.239 242.433 134.535 245.454 134.915 248.475H134.92Z" fill="white"/>
<path d="M139.218 249.261C139.581 252.287 140.028 255.303 140.532 258.309C141.047 261.319 141.618 264.32 142.382 267.3C142.403 264.227 142.237 261.18 142.003 258.133C141.769 255.091 141.473 252.054 141.099 249.028C140.73 246.002 140.288 242.986 139.779 239.981C139.27 236.97 138.693 233.969 137.934 230.99C137.919 234.063 138.085 237.109 138.313 240.156C138.547 243.198 138.843 246.235 139.218 249.261Z" fill="white"/>
<path d="M143.515 250.042C143.879 253.079 144.32 256.11 144.825 259.131C145.334 262.152 145.905 265.168 146.664 268.158C146.69 265.075 146.529 262.007 146.295 258.955C146.061 255.898 145.77 252.856 145.401 249.82C145.032 246.783 144.591 243.747 144.087 240.725C143.577 237.704 143.006 234.694 142.252 231.698C142.232 234.787 142.393 237.849 142.621 240.901C142.855 243.959 143.146 247.006 143.515 250.042Z" fill="white"/>
<path d="M147.812 250.828C148.176 253.886 148.618 256.922 149.117 259.959C149.616 262.99 150.192 266.022 150.946 269.022C150.972 265.929 150.816 262.851 150.587 259.788C150.364 256.715 150.068 253.658 149.699 250.606C149.335 247.554 148.893 244.512 148.394 241.481C147.896 238.449 147.319 235.418 146.565 232.412C146.539 235.511 146.7 238.584 146.929 241.651C147.152 244.719 147.449 247.776 147.812 250.828Z" fill="white"/>
<path d="M152.115 251.61C152.473 254.677 152.91 257.729 153.408 260.781C153.907 263.823 154.479 266.865 155.232 269.886C155.258 266.777 155.108 263.689 154.879 260.606C154.656 257.528 154.365 254.45 153.996 251.392C153.637 248.325 153.201 245.273 152.702 242.226C152.203 239.174 151.631 236.137 150.878 233.121C150.852 236.225 151.008 239.313 151.236 242.396C151.455 245.48 151.751 248.552 152.115 251.61Z" fill="white"/>
<path d="M77.8375 132.489C77.8375 127.451 76.2682 124.011 72.241 122.961C75.5823 120.964 77.084 117.658 77.084 112.754V111.052C77.2919 104.12 72.7814 100.484 65.9638 101.523C61.4377 102.149 59.1773 102.486 54.6616 103.2C54.6616 119.096 54.6616 134.988 54.6616 150.885C59.3695 150.145 61.7235 149.793 66.4418 149.147C72.9945 148.21 78.3312 143.389 77.8323 136.38V132.495L77.8375 132.489ZM62.1548 108.874C63.5994 108.667 64.3217 108.564 65.7663 108.362C68.4217 107.995 69.5856 109.345 69.5856 112.749V115.403C69.5856 119.221 67.8812 120.664 65.0856 121.057C63.9112 121.223 63.3292 121.305 62.1548 121.476V108.874ZM70.3339 137.104C70.3339 140.647 68.9673 141.982 66.447 142.329C64.7322 142.567 63.8696 142.686 62.1548 142.934V128.289C63.4903 128.098 64.1554 127.999 65.4909 127.813C68.8997 127.337 70.3287 128.522 70.3287 132.95V137.104H70.3339Z" fill="#283375"/>
<path d="M90.4438 98.6318C87.8872 114.792 85.3358 130.953 82.7896 147.114C85.5488 146.809 86.9311 146.664 89.6956 146.39C90.2152 142.877 90.475 141.123 90.9946 137.611C94.6893 137.254 96.534 137.088 100.234 136.788C100.753 140.208 101.013 141.915 101.533 145.334C104.573 145.091 106.095 144.982 109.135 144.776C106.579 129.07 104.022 113.359 101.465 97.6541C97.0536 98.0058 94.8504 98.2024 90.449 98.6318H90.4438ZM91.9508 131.046C93.1563 122.899 94.3671 114.746 95.5779 106.598C96.7886 114.534 97.9942 122.464 99.2049 130.4C96.3002 130.643 94.8504 130.772 91.9508 131.046Z" fill="#283375"/>
<path d="M110.715 103.8C113.87 103.598 115.444 103.505 118.598 103.344V144.217C121.617 144.062 123.124 143.994 126.143 143.875C126.143 130.25 126.143 116.629 126.143 103.003C129.298 102.879 130.877 102.827 134.032 102.744V95.9314C126.253 96.1745 118.484 96.5263 110.715 96.9867V103.8Z" fill="#283375"/>
<path d="M143.307 95.761C140.74 111.699 138.178 127.637 135.622 143.581C138.396 143.514 139.779 143.493 142.554 143.457C143.073 139.991 143.338 138.258 143.858 134.792C147.563 134.756 149.418 134.75 153.123 134.766C153.643 138.227 153.908 139.96 154.427 143.426C157.472 143.446 159 143.467 162.045 143.529C159.483 127.601 156.922 111.668 154.36 95.7403C149.938 95.7092 147.729 95.7144 143.307 95.761ZM144.819 128.31C146.03 120.266 147.246 112.222 148.457 104.172C149.667 112.211 150.883 120.25 152.094 128.289C149.184 128.279 147.729 128.284 144.819 128.31Z" fill="#283375"/>
<path d="M188.121 137.781C183.158 137.471 180.674 137.342 175.712 137.135V96.2624C172.693 96.1383 171.186 96.0814 168.167 95.9934V143.679C174.823 143.875 181.48 144.181 188.126 144.594V137.781H188.121Z" fill="#283375"/>
<path d="M201.678 97.9076C198.664 97.6541 197.157 97.5351 194.144 97.3179V145.003C200.79 145.484 207.431 146.074 214.056 146.767V139.954C209.109 139.432 206.63 139.199 201.673 138.78V97.9076H201.678Z" fill="#283375"/>
<path d="M226.813 100.556C224.261 116.148 221.715 131.734 219.169 147.326C221.928 147.641 223.305 147.802 226.065 148.148C226.584 144.755 226.844 143.053 227.358 139.659C231.043 140.13 232.882 140.378 236.561 140.901C237.081 144.434 237.336 146.203 237.855 149.737C240.879 150.176 242.392 150.404 245.411 150.88C242.875 134.6 240.334 118.321 237.788 102.041C233.402 101.405 231.209 101.11 226.813 100.551V100.556ZM228.315 133.312C229.52 125.433 230.726 117.555 231.926 109.676C233.132 117.881 234.337 126.085 235.538 134.29C232.648 133.881 231.204 133.69 228.309 133.312H228.315Z" fill="#283375"/>
<path d="M151.232 56.704C160.725 56.704 168.421 49.0427 168.421 39.5915C168.421 30.1403 160.725 22.479 151.232 22.479C141.738 22.479 134.042 30.1403 134.042 39.5915C134.042 49.0427 141.738 56.704 151.232 56.704Z" fill="#FFCB27"/>
<path d="M151.232 56.704C160.725 56.704 168.421 49.0427 168.421 39.5915C168.421 30.1403 160.725 22.479 151.232 22.479C141.738 22.479 134.042 30.1403 134.042 39.5915C134.042 49.0427 141.738 56.704 151.232 56.704Z" fill="#FFCB27"/>
<path d="M171.092 31.7182C171.95 32.2458 173.041 32.2251 173.898 32.7321C174.683 33.0735 175.39 33.6115 176.039 34.2581C177.016 34.5996 178.102 34.6823 178.949 35.3393C179.936 36.2394 181.043 36.8654 182.332 37.0206C184.572 37.5172 186.276 39.3381 188.303 40.3624C189.009 40.6779 189.95 40.8797 190.631 40.3624C190.859 40.1296 191.062 39.8813 191.114 39.5657C190.896 37.7241 188.801 36.7361 187.986 35.1479C187.778 34.5375 187.663 33.5701 188.079 33.0166C189.061 31.8734 190.36 31.4699 191.753 31.3043C192.34 31.2474 192.6 30.3732 193.348 30.7042C193.722 30.9112 193.593 31.3198 193.67 31.6561C193.769 32.7993 193.499 33.8081 192.548 34.4806C191.992 34.8841 191.291 34.972 190.599 35.0548C192.382 36.6119 193.936 38.5984 193.089 40.9987C192.444 42.2247 191.197 43.1765 189.773 43.13C189.217 43.1351 188.666 43.1351 188.173 43.0006L188.136 43.0627C188.251 44.1284 188.261 45.313 187.757 46.2079C187.757 46.3787 187.851 46.539 188.006 46.6166C188.464 46.8235 189.041 46.7666 189.539 46.8753C190.625 47.5064 190.007 49.0117 191.046 49.6636C190.932 49.2807 191.394 49.0738 191.618 48.8772C192.616 48.4789 193.109 49.4877 193.785 49.9584C193.904 50.1343 193.826 50.3981 193.847 50.6257C194.351 50.5171 194.684 50.8844 194.97 51.231C195.24 51.7017 194.933 52.4053 195.354 52.814C195.287 53.1864 195.531 53.7037 195.063 53.8641C194.559 53.9365 194.102 54.2521 193.535 54.0814C193.437 54.0451 193.359 53.7761 193.244 53.9624C192.429 53.9158 191.524 54.0917 190.854 53.7089C190.454 53.3571 190.153 52.9588 189.862 52.5656C189.274 52.9226 188.323 52.8605 187.757 52.5036C186.796 51.5879 185.694 51.0189 184.4 50.9103C183.74 51.0655 182.768 51.1793 182.166 50.8172C181.21 50.2326 180.02 49.4411 179.962 48.2099C179.9 47.7547 179.833 47.2943 179.77 46.8391C179.11 47.1805 178.19 46.9891 177.437 46.9994C175.504 46.6063 173.685 47.4702 171.69 47.1184L171.56 46.9994C171.186 47.3926 170.76 47.6668 170.282 47.7857C170.728 47.9409 171.56 47.5478 171.622 48.2979C172.402 48.0496 173.321 48.2254 174.142 48.272C174.662 48.4582 174.517 49.0169 174.501 49.4152C173.981 49.9377 173.716 51.0706 172.739 50.9051C172.682 51.6138 172.126 52.2966 171.461 52.5605C169.923 52.7674 168.759 51.8725 167.382 51.6035C167.065 51.5259 166.852 51.1637 166.613 50.9723C166.119 50.8844 165.464 51.0913 165.205 50.4964C165.018 49.8291 164.799 49.1773 164.664 48.4944C164.545 48.6496 164.363 48.6134 164.186 48.6238C164.316 49.3842 163.921 49.9636 163.324 50.3981C162.035 50.7809 161.157 49.7825 160.034 49.5446C159.302 49.4825 158.429 49.8394 157.831 49.3532C157.654 49.1876 157.457 49.0583 157.291 48.8772L157.197 48.9031C156.168 49.8808 155.056 50.7551 153.523 50.4292C153.118 50.2429 153.263 49.8394 153.237 49.5032L153.3 49.4101C152.822 49.2807 152.167 49.5808 151.866 49.0273C151.907 48.6755 151.715 48.1892 152.183 48.0392C153.877 47.1339 154.599 45.313 155.16 43.6887C155.685 41.8264 156.236 39.9589 156.916 38.1586C158.995 34.253 163.173 32.7166 166.301 29.9904C166.795 29.6334 167.512 29.7472 168.12 29.7731C169.305 29.949 170.354 30.668 171.092 31.713V31.7182Z" fill="#FFCB27"/>
<path d="M142.803 34.0047C143.972 35.2618 145.095 36.5343 146.03 37.8845C146.347 38.6087 146.716 39.3226 146.705 40.171C146.991 41.8471 147.547 43.4093 148.171 44.9457C149.387 45.7838 149.605 47.5064 151.102 47.9254C151.502 48.1117 151.278 48.5824 151.294 48.8876C151.029 49.2549 150.546 49.0997 150.145 49.1359L150.12 49.1721C150.462 49.3687 150.27 49.8239 150.275 50.124C149.964 50.5947 149.34 50.2947 148.872 50.3775C147.771 50.2792 146.815 49.8084 146.03 48.9807C145.438 49.5291 144.824 50.0257 143.957 49.9067C142.294 49.5808 141.166 51.0086 139.451 50.6361C139.186 50.5585 138.952 50.3257 138.781 50.0981C138.651 49.5291 138.474 48.8721 138.677 48.2875L138.558 48.1634C138.646 49.1825 137.97 49.8964 137.529 50.7034C137.019 51.4328 135.944 50.8327 135.388 51.4638C134.016 51.9397 132.753 52.8916 131.142 52.6071C130.529 52.3743 129.989 51.7225 129.708 51.1431C129.443 50.8999 129.001 51.0862 128.69 50.9879C128.17 50.4964 127.905 49.8964 127.541 49.3325C127.583 48.9135 127.375 48.3548 127.915 48.1634C128.622 47.9978 129.37 47.9358 130.155 47.972C130.363 47.9151 130.54 48.241 130.659 48.0392L130.877 47.7858C131.314 47.6771 131.792 47.7288 132.218 47.6306C131.787 47.3305 131.361 47.0408 130.976 46.6425C130.503 47.2322 129.682 46.9477 128.991 47.0253C127.837 47.0564 126.746 46.4511 125.608 46.896C125.021 47.0926 124.345 47.046 123.696 47.0563C123.737 47.8271 123.14 48.3186 122.958 48.9911C122.537 50.0981 121.352 50.005 120.656 50.7706C119.622 51.3034 118.364 50.8327 117.242 50.8327C116.203 51.0034 115.59 52.2139 114.592 52.4829C114.124 52.6019 113.594 52.5398 113.158 52.4208C112.773 52.6846 112.706 53.1968 112.383 53.533C111.713 54.5935 110.196 54.071 109.26 53.9469C109.011 54.1641 108.585 54.0607 108.268 54.0452C107.966 53.8331 107.53 53.9624 107.312 53.5641C107.317 53.1502 107.249 52.7105 107.572 52.4208C107.707 52.007 107.54 51.4741 107.821 51.1224C108.107 50.7965 108.413 50.5275 108.876 50.6465C108.595 49.6429 109.796 49.5032 110.253 48.929C110.502 48.8307 110.866 48.8566 111.147 48.9031C111.37 49.1411 111.838 49.3428 111.656 49.7877L111.692 49.8188C112.976 49.3222 112.42 47.8064 113.511 47.1443L114.789 47.0253C115.215 46.8132 115.636 46.5649 116.036 46.2597C115.517 45.2975 115.273 44.2319 115.304 43.0472C113.916 43.3886 112.108 43.4507 110.986 42.504C109.946 41.666 109.401 40.5538 109.525 39.2036C109.369 37.2792 111.282 36.105 112.518 34.8479C111.183 34.9565 110.019 34.5634 109.271 33.415C108.761 32.8201 108.891 31.9303 108.917 31.1543C108.98 30.9215 109.068 30.6836 109.297 30.5232C110.061 30.2749 110.424 30.9681 110.986 31.1905C112.394 31.9044 114.576 31.4182 115.2 33.3219C115.382 34.3513 115.267 35.4169 114.436 36.1205C113.402 37.0206 111.936 38.0242 111.755 39.4261C111.838 40.0417 112.305 40.709 112.934 40.9211C113.776 41.2832 114.545 40.7193 115.267 40.4141C116.805 39.7571 117.907 38.0604 119.549 37.6414C120.963 37.2741 122.568 37.362 123.602 36.0843C124.543 34.9824 125.79 34.4703 127.24 34.5272C127.874 34.3513 128.186 33.6219 128.747 33.2546C129.75 32.3907 131.059 32.2303 132.192 31.6613C133.403 31.1492 134.328 29.9801 135.767 30.0421C138.734 29.8507 140.506 32.5511 142.793 34.0099L142.803 34.0047Z" fill="#FFCB27"/>
<path d="M170.739 32.1319C171.274 32.644 172.059 32.5561 172.682 32.8354C173.794 33.2596 174.86 33.8028 175.748 34.7391C176.72 35.0805 177.811 35.1736 178.653 35.8151C179.646 36.7204 180.747 37.3412 182.046 37.5015C184.286 37.9981 185.985 39.8191 188.012 40.8382C188.869 41.2727 190.075 41.3658 190.922 40.8382C191.483 40.3674 191.8 39.7208 191.556 38.9965C191.124 37.3101 189.259 36.3893 188.459 34.8633C188.204 34.4287 188.24 33.7045 188.557 33.3062C189.503 32.2871 190.735 31.956 192.034 31.7801C192.387 31.6456 192.709 31.4749 193 31.1749C193.12 31.1542 193.115 31.299 193.156 31.3663C193.307 32.4733 193.037 33.6062 192.008 34.1649C191.421 34.4442 190.766 34.5322 190.09 34.5787C189.95 34.6305 189.934 34.7805 189.908 34.8995C189.893 35.1116 190.028 35.2616 190.189 35.4013C191.483 36.5549 192.585 37.8326 192.834 39.4363C192.902 40.595 192.242 41.552 191.301 42.1728C190.288 42.8194 188.802 42.7056 187.664 42.4004C187.295 42.6642 187.7 43.0057 187.664 43.3161C187.866 44.2834 187.627 45.2197 187.248 46.0216C187.154 46.3526 187.253 46.6837 187.508 46.9113C187.965 47.3821 188.661 47.2372 189.264 47.3562C189.914 47.827 189.779 48.7219 190.064 49.3892C190.231 49.8186 190.698 50.0617 191.021 50.4032C191.431 50.936 191.847 51.743 192.621 51.774C192.865 52.2758 192.985 52.8448 193.073 53.4294L192.969 53.4863C192.351 53.4501 191.639 53.6105 191.15 53.238C190.574 52.8397 190.439 51.8309 189.586 52.0585C189.259 52.3068 188.755 52.4 188.37 52.2137C187.7 51.7637 187.102 51.1326 186.359 50.848C185.419 50.429 184.187 50.3152 183.132 50.5635C182.384 50.4859 181.87 49.8341 181.215 49.5134C180.524 48.7736 180.389 47.8063 180.295 46.813C180.326 46.751 180.347 46.6734 180.42 46.6216C180.654 46.6061 180.649 46.8958 180.773 47.0355C181.308 48.3753 182.722 49.6531 184.25 49.6117C185.736 49.441 187.274 49.503 188.339 50.5273C188.573 50.7756 188.859 50.8894 189.072 51.1636C189.191 51.1998 189.259 51.1067 189.332 51.0343V50.936C188.183 49.4823 186.5 48.7116 184.572 49.0995C184.541 49.0271 184.494 49.1047 184.442 49.0995C183.236 49.0323 182.161 48.2563 181.631 47.1596C180.872 45.8715 181.153 44.1541 180.545 42.8091C180.451 42.7212 180.373 42.7108 180.259 42.7729C180.139 42.9229 180.207 43.1505 180.233 43.3109C180.285 43.673 180.384 44.0144 180.389 44.3972L180.352 44.4231L180.389 44.4593C180.311 45.1784 180.259 46.0009 179.526 46.363C178.071 46.9165 176.647 46.094 175.125 46.4561C174.137 46.6268 173.093 46.8027 172.023 46.6837C172.215 46.3009 172.475 45.7836 172.215 45.3749C171.643 45.3956 171.773 46.0423 171.451 46.3371C171.04 46.8958 170.474 47.2321 169.856 47.351C169.31 47.7804 168.65 48.3236 168.359 48.9443C168.416 49.9945 169.585 50.1031 170.334 50.3721C170.583 50.3307 170.864 50.3566 171.04 50.1497C171.513 49.6479 171.524 48.5978 172.449 48.6495L172.48 48.6857C172.558 48.6857 172.729 48.6909 172.828 48.6495C173.244 48.7478 173.805 48.5564 174.075 48.9392C173.898 49.4151 173.524 49.7979 173.244 50.2376C173.01 50.548 172.49 50.279 172.288 50.5842C172.236 51.2153 171.841 51.893 171.201 52.0844C170.521 52.1723 169.944 51.8361 169.352 51.6395C168.52 51.3084 167.507 51.355 166.92 50.4963C166.483 50.2893 165.787 50.7032 165.641 50.0514C165.506 49.3272 165.127 48.665 165.226 47.8942C165.724 47.0458 166.109 46.1612 166.759 45.3801C167.07 45.4111 167.315 45.587 167.585 45.7008C167.169 46.6837 165.953 47.3614 166.244 48.5926C166.358 48.8978 166.379 49.2909 166.696 49.4513C166.733 49.053 166.618 48.5202 166.795 48.1529L166.982 47.7701L168.26 46.0526C168.38 45.8043 168.317 45.4732 168.193 45.2301C167.652 44.8162 166.935 44.4334 166.665 43.7661C166.166 42.835 166.145 41.6969 166.088 40.5898C166.026 40.5226 166.01 40.3933 165.896 40.3622C165.428 40.4967 165.595 41.0658 165.517 41.4382C165.439 42.6798 165.823 43.7351 166.28 44.749C166.286 44.868 166.286 45.0025 166.151 45.0335C165.278 45.0025 164.394 45.018 163.662 44.6507C163.178 44.3662 162.773 43.8903 162.29 43.6057C162.227 43.6161 162.186 43.6937 162.129 43.7351C162.316 44.7593 163.521 45.3594 163.667 46.4044C163.927 46.932 164.477 47.3873 164.399 48.0235C164.223 48.2874 163.927 48.0598 163.693 48.0856L163.599 48.1787C163.62 48.6598 163.88 49.2961 163.376 49.6427C163.137 49.8496 162.882 50.1135 162.539 49.9634C161.391 49.591 160.419 48.7116 159 49.1047C158.288 49.2703 157.878 48.5512 157.337 48.2149L157.145 48.2408C156.189 49.0995 155.191 50.1031 153.83 49.9634C153.586 49.7772 153.944 49.5755 154.079 49.4513C155.316 48.7581 155.326 47.4442 156.257 46.5647C156.236 46.4354 156.433 46.2285 156.194 46.1819H156.064C155.399 46.8286 154.838 47.5166 154.376 48.246C153.897 48.8254 153.149 48.9857 152.453 48.8512C152.38 48.7943 152.339 48.7219 152.359 48.6288C155.441 46.8544 155.68 43.3574 156.698 40.4605C157.135 38.8051 157.862 37.2739 159.224 36.0065C161.536 33.8338 164.212 32.494 166.603 30.4713C167.444 29.9902 168.572 30.3523 169.346 30.7921C169.856 31.1335 170.396 31.5991 170.749 32.1267L170.739 32.1319Z" fill="#E11B4D"/>
<path d="M138.558 31.3715C140.517 33.0424 142.871 34.3305 144.367 36.5859C145.318 37.7395 146.181 38.9345 146.222 40.4605C146.508 42.1366 147.064 43.6937 147.683 45.2301C148.956 46.1819 149.216 47.9356 150.842 48.4374C150.878 48.634 150.686 48.6236 150.556 48.6547C149.496 48.7478 148.66 48.0442 148.104 47.1907C147.797 46.5854 147.22 45.8974 146.534 45.7371C146.456 45.7681 146.456 45.8767 146.503 45.9233C147.111 46.6268 147.511 47.4235 147.807 48.246C148.343 48.9082 149.044 49.3065 149.756 49.5807C149.813 49.6427 149.86 49.7669 149.792 49.8393C149.512 49.9376 149.138 49.9117 148.836 49.8652C147.865 49.7151 147.028 49.2651 146.311 48.5047C146.139 48.4581 145.983 48.3029 145.796 48.4064C145.126 49.1565 144.253 49.622 143.245 49.3634C141.909 49.3065 140.964 50.3566 139.639 50.1238C139.062 49.9635 139.233 49.3065 139.062 48.8875C139.062 48.4995 139.405 48.246 139.576 47.9253C139.602 47.8115 139.535 47.677 139.415 47.677C139.233 47.677 138.984 47.9615 138.87 47.677C138.87 46.9889 139.55 46.5854 139.987 46.0837C140.086 45.5612 140.252 45.0542 140.621 44.6507C140.657 44.5576 140.532 44.5421 140.532 44.4645C139.8 44.7438 138.854 44.5369 138.199 45.0025C137.851 45.0387 137.472 45.2249 137.113 45.0697C137.04 44.9818 136.978 44.8783 137.051 44.78C137.534 43.9472 137.841 42.9953 137.654 41.9245C137.617 41.8469 137.617 41.7538 137.524 41.6969C137.435 41.6659 137.389 41.7486 137.331 41.7952C137.238 42.7522 136.911 43.6213 136.438 44.4283C136.053 44.8576 135.404 44.7645 134.905 45.0025C134.728 45.0801 134.671 45.2715 134.655 45.4422C135.144 46.4147 135.809 47.3097 136.308 48.277C136.355 48.8306 136.141 49.3686 135.991 49.8962C136.048 49.9635 136.147 50.0307 136.219 49.9635C136.718 49.441 137.118 48.8409 137.02 48.1167C136.594 47.2424 136.058 46.4199 135.643 45.5457C135.975 45.2818 136.417 45.437 136.76 45.5715C136.926 45.8354 137.046 46.1613 137.176 46.4613C137.394 47.0407 138.023 47.4545 138.038 48.1167C138.116 48.7788 137.685 49.2289 137.461 49.7721C137.248 50.0307 137.15 50.4032 136.822 50.5325C136.303 50.8325 135.513 50.4497 135.097 50.9826C134.021 51.4378 132.977 51.9499 131.808 52.1879C131.033 52.1672 130.41 51.4016 130.119 50.7601C129.807 50.1704 129.059 50.8687 128.778 50.279L128.014 49.0427C127.978 48.8668 128.035 48.6961 128.207 48.634C128.877 48.5357 129.714 48.2512 130.342 48.634C131.065 49.2858 131.34 50.8274 132.613 50.5377C133.299 50.367 134.13 50.0773 134.37 49.3013C134.214 47.1907 131.543 47.289 130.924 45.4888C130.831 45.2767 130.872 44.9766 130.638 44.8473C130.509 44.8473 130.394 44.9249 130.347 45.0387C130.27 45.4319 130.477 45.7112 130.54 46.0526C130.602 46.2854 130.451 46.3837 130.28 46.4665C128.711 46.7924 127.349 45.9854 125.811 46.3113C125.006 46.4613 123.81 46.901 123.197 46.0888C122.854 45.1784 122.906 44.1127 123.036 43.135C123.01 43.0264 122.891 43.0057 122.808 42.9695C122.662 42.9643 122.563 43.0833 122.548 43.2281C122.241 44.4179 122.449 45.8198 121.753 46.8493C120.677 48.7633 118.479 48.815 116.52 49.0064C115.273 49.1772 114.098 49.9945 113.454 51.1377C113.475 51.2309 113.527 51.2722 113.61 51.2981H113.74C114.977 49.7565 116.676 49.3841 118.562 49.4255C119.981 49.2806 121.42 48.8875 122.236 47.5528C122.407 47.2838 122.594 47.0148 122.74 46.7199C122.927 46.751 123.052 46.9062 123.192 47.0407C123.099 47.7183 122.631 48.2512 122.392 48.8875C121.955 49.7048 121.015 49.591 120.443 50.248C119.16 50.9722 117.632 49.891 116.291 50.5687C115.704 51.2205 115.018 51.6447 114.311 51.9965C113.755 52.1827 113.085 51.6085 112.586 52.1258C112.165 52.6276 112.072 53.4553 111.313 53.6208C110.695 53.7553 110.144 53.5173 109.557 53.4656C109.707 52.8604 109.733 52.2086 110.165 51.7171C110.778 51.7378 111.204 51.0964 111.438 50.636C112.113 50.1962 113.153 49.6427 113.194 48.7271C113.309 48.3236 113.444 47.8942 113.797 47.6201L115.075 47.4907C115.564 47.1907 116.115 46.9786 116.515 46.5285C116.613 45.706 115.969 45.1059 115.907 44.3041L115.777 42.5867C115.678 42.416 115.475 42.4108 115.325 42.4625C114.072 43.0264 112.342 42.8401 111.272 42.0176C110.289 41.2055 109.843 40.026 110.056 38.7741C110.336 37.2119 112.009 36.11 113.116 34.9926C113.153 34.8012 113.215 34.6408 113.054 34.4805C112.503 34.0563 111.698 34.5322 111.105 34.196C110.196 33.9063 109.427 32.9389 109.349 32.0026C109.313 31.6249 109.385 31.2835 109.578 30.9887C110.388 31.4801 111.173 32.0491 112.197 32.0698C113.184 32.2871 114.53 32.5199 114.753 33.7252C115.044 35.1478 113.709 36.0014 112.768 36.8342C111.776 37.6723 110.96 38.7586 111.365 40.0829C111.589 40.6985 112.197 41.2779 112.836 41.4486C114.524 41.8055 115.787 40.7192 117.081 39.8915C118.401 38.6086 119.913 37.8171 121.747 37.7602C122.776 37.5688 123.639 36.9222 124.366 36.079C125.245 35.2875 126.315 34.9771 127.531 34.9978C128.414 34.5736 128.97 33.5855 129.854 33.151C131.444 32.5044 133.133 32.0853 134.484 30.9007C135.482 30.3265 136.947 30.461 137.903 31.03L138.542 31.3766L138.558 31.3715Z" fill="#E11B4D"/>
<path d="M167.445 34.0718C167.554 34.4495 167.112 34.6874 166.873 34.9305C166.088 35.5203 165.376 36.3325 164.956 37.1239H164.888C164.826 35.7738 165.823 34.6098 166.961 33.8752C167.154 33.8701 167.367 33.8546 167.439 34.0666L167.445 34.0718Z" fill="#FFCB27"/>
<path d="M137.591 36.1102C137.762 36.7051 137.825 37.4603 137.653 38.0759L137.56 38.138C137.466 37.988 137.466 37.7966 137.43 37.6259C137.3 36.8758 136.967 36.1981 136.536 35.5618C136.52 35.4325 136.536 35.3032 136.63 35.2152C136.744 35.1997 136.884 35.1531 136.983 35.2152C137.295 35.4428 137.43 35.7998 137.591 36.1102Z" fill="#FFCB27"/>
<path d="M145.064 42.1729C145.448 42.6902 145.692 43.4662 145.355 44.0818C145.256 44.087 145.136 44.2163 145.064 44.0818C145.131 43.28 144.664 42.6333 144.04 42.1729C143.874 42.0953 143.676 42.1057 143.536 42.235L143.021 42.8402C142.85 42.7627 142.933 42.4833 142.959 42.3333C143.146 41.8729 143.401 41.428 143.562 40.9624C143.65 40.8176 143.853 40.859 143.978 40.9003C144.482 41.2211 144.57 41.8056 145.064 42.1729Z" fill="#FFCB27"/>
<path d="M160.808 42.0798C160.881 42.3488 161.229 42.6902 160.871 42.9385C160.678 42.9747 160.507 42.8092 160.45 42.6488C160.377 42.566 160.351 42.4367 160.226 42.4005C159.764 42.2867 159.421 42.6695 159.078 42.9385C158.512 43.2799 158.351 43.849 158.215 44.4025C158.179 44.5008 158.075 44.4439 157.997 44.4646C157.711 44.18 157.997 43.8283 157.997 43.5075C158.283 42.5402 159.379 42.0022 159.909 41.1279C160.471 41.1072 160.543 41.7435 160.808 42.0798Z" fill="#FFCB27"/>
<path d="M139.644 45.1938C139.581 45.3956 139.488 45.587 139.483 45.7991C139.083 46.2802 138.417 46.6371 138.397 47.2631C137.971 46.7872 137.721 46.2285 137.472 45.6801C138.256 45.7577 138.818 45.168 139.607 45.199H139.644V45.1938Z" fill="#FFCB27"/>
<path d="M165.885 45.551L164.862 47.2995C164.592 46.6943 164.072 46.177 163.932 45.5148L163.843 45.3596C164.503 45.4734 165.184 45.5303 165.885 45.551Z" fill="#FFCB27"/>
<path d="M143.977 47.1961C144.019 47.4393 143.92 47.6203 143.822 47.8014C143.484 47.8945 143.136 48.0342 142.767 47.9307C142.673 47.7031 142.897 47.5272 142.959 47.3306C143.229 47.0875 143.51 46.7771 143.915 46.953L143.977 47.2013V47.1961Z" fill="#FFCB27"/>
<path d="M160.388 47.2942C160.471 47.4856 160.648 47.7132 160.492 47.9253C160.253 47.9977 160.014 47.9253 159.785 47.8994C159.52 47.7598 159.504 47.4494 159.432 47.1959C159.489 47.108 159.447 46.9579 159.562 46.9114C159.884 46.9321 160.19 47.0511 160.388 47.2942Z" fill="#FFCB27"/>
<path d="M133.319 49.0686C133.361 49.1824 133.481 49.2704 133.439 49.4256C133.054 49.7049 132.592 50.0877 132.109 49.8394C131.807 49.3428 131.672 48.7324 131.116 48.4013C131.116 48.3237 131.142 48.2616 131.21 48.2151C131.34 48.1996 131.48 48.2358 131.594 48.1789L131.62 48.2151C132.026 48.1271 132.488 48.1013 132.899 48.1168C133.091 48.4168 133.164 48.7582 133.319 49.0686Z" fill="#E11B4D"/>
<path d="M170.359 48.3394L170.385 48.3083C170.521 48.3239 170.718 48.3032 170.9 48.3083C170.993 48.2928 171.066 48.329 171.118 48.4015C171.04 48.8515 170.905 49.2705 170.734 49.674C170.562 49.9016 170.209 49.7878 169.97 49.7723C169.746 49.6533 169.44 49.643 169.299 49.3895C169.211 48.9757 169.377 48.5929 169.622 48.2825C169.845 48.3497 170.131 48.267 170.359 48.3394Z" fill="#E11B4D"/>
<path d="M111.188 49.7101C111.131 50.0929 110.819 50.3722 110.622 50.6981C110.388 50.9258 110.107 51.1585 109.754 51.0085C109.619 50.993 109.541 50.843 109.432 50.7602C109.13 49.9222 110.216 49.9325 110.554 49.3893C110.793 49.2393 111.089 49.4669 111.188 49.7101Z" fill="#E11B4D"/>
<path d="M193.307 50.248C193.416 50.3928 193.333 50.5325 193.307 50.698C193.198 50.9308 192.943 50.9825 192.735 51.0756C192.106 51.0032 191.883 50.279 191.55 49.8393C191.472 49.5548 191.815 49.4616 191.966 49.3271L192.195 49.3634L193.307 50.248Z" fill="#E11B4D"/>
<path d="M109.338 51.6758C109.167 52.3172 109.032 52.969 108.824 53.5846C108.45 53.5639 108.138 53.3777 107.805 53.2639C107.764 52.938 108.117 52.7725 108.127 52.4673C108.107 51.9862 108.091 51.4637 108.543 51.1947C108.616 51.1636 108.678 51.1016 108.761 51.1016L109.338 51.6706V51.6758Z" fill="#E11B4D"/>
<path d="M194.559 51.65C194.704 52.1208 194.491 52.7364 194.881 53.114L194.845 53.3675L193.889 53.652C193.681 53.5175 193.759 53.2071 193.696 52.9847C193.603 52.5139 193.359 52.069 193.41 51.5879C193.587 51.4069 193.79 51.0137 194.112 51.1741C194.309 51.2776 194.445 51.469 194.559 51.65Z" fill="#E11B4D"/>
<path fill-rule="evenodd" clip-rule="evenodd" d="M195.645 86.47H190.911V62.0117H195.645V86.47ZM203.648 86.47H198.914V62.0117H203.648V86.47ZM168.13 64.7689C169.216 65.9277 169.835 67.402 169.835 69.0057C169.835 70.7749 169.045 72.3889 167.751 73.5942C170.942 75.0685 171.892 76.9825 171.892 79.6674C171.892 83.3609 168.666 86.3613 164.664 86.4234L154.214 86.4493V62.9842L162.305 63.0204C165.007 63.0204 167.003 63.5326 168.135 64.7689H168.13ZM128.898 80.0812C128.929 79.7553 128.944 79.4294 128.944 79.088C129.017 73.9873 125.624 71.1887 121.306 71.1887C116.987 71.1887 113.485 74.7167 113.485 79.0725C113.485 83.4282 116.987 86.9614 121.311 86.9614C124.605 86.9614 127.178 85.4767 128.508 83.1488L124.668 81.3848C124.179 82.435 123.036 83.1747 121.701 83.1747C119.923 83.1747 118.479 81.8607 118.479 80.2364C118.479 80.1329 118.437 80.1743 118.448 80.0709H128.903L128.898 80.0812ZM104.48 66.8899L101.476 66.9157V86.4338H96.4409V62.8497H104.734C104.854 62.8497 105.405 62.8394 105.524 62.8394C109.463 62.8394 112.659 65.9587 112.659 69.8075C112.659 73.082 110.346 75.8341 107.223 76.579L114.181 86.4338H108.247L103.217 78.7103V73.0924L104.386 73.0665C106.247 73.0665 107.753 71.6853 107.753 69.9782C107.753 68.2711 106.34 66.8899 104.48 66.8899ZM143.037 84.5559C141.774 85.8182 140.106 86.5993 138.261 86.5993C134.354 86.5993 131.184 83.1488 131.184 78.8914C131.184 74.634 134.354 71.1835 138.261 71.1835C140.091 71.1835 141.764 71.9336 143.016 73.17L142.995 61.8254H147.729L147.74 86.4544H143.037V84.5559ZM118.458 77.3705C118.458 75.7824 119.752 74.4943 121.352 74.4943C122.953 74.4943 124.242 75.7824 124.242 77.3705H118.458ZM163.786 82.3367H159.26V67.0347H162.419C163.807 67.0347 164.929 68.1521 164.929 69.5333C164.929 70.9145 163.807 72.0319 162.419 72.0319H160.777V76.2738H163.791C165.475 76.2738 166.743 77.624 166.743 79.3001C166.686 81.0279 165.615 82.2229 163.791 82.3367H163.786ZM136.131 79.0363C136.131 76.9463 137.685 75.2496 139.602 75.2496C141.52 75.2496 143.078 76.9463 143.078 79.0363C143.078 81.1262 141.525 82.8229 139.602 82.8229C137.679 82.8229 136.131 81.1262 136.131 79.0363ZM178.237 80.5106L178.268 72.0164H173.535V81.4159C173.54 84.5973 176.85 87.1787 180.929 87.1787C185.008 87.1787 188.313 84.5973 188.313 81.4159V72.0578H183.662L183.647 80.5158C183.647 81.928 182.436 83.0764 180.945 83.0764C179.453 83.0764 178.242 81.928 178.242 80.5158L178.237 80.5106Z" fill="#E11B4D"/>
<path d="M126.253 199.197C126.684 196.589 127.042 193.972 127.307 191.334C127.562 188.695 127.744 186.047 127.697 183.362C126.777 185.886 126.091 188.452 125.473 191.028C124.865 193.605 124.351 196.201 123.914 198.809C123.478 201.416 123.124 204.033 122.859 206.672C122.605 209.31 122.423 211.959 122.475 214.643C123.4 212.119 124.086 209.553 124.704 206.977C125.312 204.401 125.826 201.804 126.258 199.197H126.253Z" fill="#283375"/>
<path d="M145.365 210.743C145.973 208.166 146.487 205.57 146.919 202.962C147.35 200.355 147.708 197.737 147.973 195.099C148.228 192.461 148.524 189.15 148.477 186.465C147.558 188.99 146.757 192.223 146.139 194.799C145.531 197.375 145.017 199.972 144.58 202.579C144.144 205.187 143.79 207.804 143.525 210.443C143.271 213.081 143.089 215.869 143.141 218.559C144.066 216.035 144.752 213.324 145.37 210.748L145.365 210.743Z" fill="#283375"/>
<path d="M129.869 207.866C130.477 205.29 130.992 202.699 131.423 200.091C131.854 197.484 132.213 194.867 132.473 192.233C132.727 189.595 132.909 186.952 132.857 184.262C131.937 186.786 131.252 189.352 130.633 191.928C130.025 194.504 129.511 197.096 129.074 199.703C128.638 202.311 128.284 204.928 128.019 207.561C127.765 210.2 127.583 212.843 127.635 215.533C128.56 213.008 129.246 210.443 129.864 207.866H129.869Z" fill="#283375"/>
<path d="M140.106 209.92C140.714 207.344 141.228 204.747 141.66 202.14C142.091 199.532 142.449 196.915 142.714 194.277C142.969 191.638 143.255 188.405 143.203 185.715C142.283 188.24 141.493 191.395 140.875 193.971C140.267 196.548 139.752 199.144 139.316 201.752C138.879 204.359 138.526 206.976 138.261 209.615C138.006 212.253 137.825 214.902 137.877 217.586C138.802 215.062 139.487 212.496 140.106 209.92Z" fill="#283375"/>
<path d="M135.034 208.622C135.642 206.046 136.157 203.454 136.588 200.847C137.019 198.239 137.378 195.622 137.638 192.989C137.892 190.356 138.074 187.707 138.022 185.022C137.103 187.547 136.417 190.113 135.798 192.684C135.19 195.26 134.676 197.851 134.239 200.459C133.803 203.066 133.45 205.684 133.185 208.317C132.93 210.95 132.696 213.867 132.748 216.552C133.673 214.028 134.411 211.198 135.029 208.622H135.034Z" fill="#283375"/>
<path d="M73.478 159.312V159.327C73.478 159.327 73.5092 159.322 73.5248 159.317C73.6911 159.291 73.8522 159.265 74.0185 159.239C73.8366 159.265 73.6599 159.291 73.478 159.312ZM185.086 190.505L182.784 175.648L182.867 175.623C184.696 175.085 186.073 173.243 186.073 171.344V166.668L186.635 166.513C188.5 165.985 189.867 164.128 189.83 162.209L189.815 155.851C177.271 155.106 163.89 154.703 150 154.703C136.11 154.703 123.951 155.07 111.9 155.753L111.859 157.237V163.228C111.859 165.069 113.189 166.709 114.961 167.17V172.26C114.961 173.527 115.595 174.712 116.561 175.478L115.844 180.796H115.719C111.911 180.796 108.787 184.944 108.611 190.236C108.46 194.613 110.45 198.4 113.293 199.672L110.752 218.461C110.736 218.616 110.726 218.766 110.721 218.916C110.611 220.944 110.98 222.708 111.058 222.894C111.058 222.894 111.06 222.897 111.063 222.904L119.622 266.281C119.965 268.045 121.555 269.669 123.311 270.078C123.311 270.078 161.209 278.541 161.448 278.484C161.448 278.484 161.926 278.536 162.554 278.536H162.565C163.994 278.536 166.966 278.323 170.219 276.891C170.219 276.891 170.23 276.885 170.235 276.885H170.24C172.209 276.254 174.797 274.252 177.037 271.878C177.177 271.733 177.307 271.598 177.432 271.459C179.318 269.431 180.69 267.677 181.329 265.743C181.329 265.737 181.329 265.727 181.329 265.717C181.428 265.494 181.516 265.272 181.589 265.06L181.729 264.258L181.74 264.165L189.061 220.83C189.269 219.604 189.28 217.669 189.087 216.433L188.578 213.122C190.178 210.805 191.249 207.447 191.379 203.63C191.607 196.899 188.9 191.437 185.081 190.505H185.086ZM158.158 173.346V178.188L155.316 177.775L151.777 177.273L143.816 176.135L119.035 172.55C118.92 172.534 118.754 172.343 118.754 172.219V167.666L158.06 173.326C158.096 173.336 158.132 173.336 158.158 173.346ZM115.922 163.45C115.808 163.435 115.647 163.249 115.647 163.135V157.967L157.821 163.435V169.487L115.922 163.45ZM113.708 219.169L118.053 185.519L118.151 184.789V184.774L119.237 176.321L158.605 182.011L153.071 226.862L113.708 219.169ZM125.213 263.844C124.439 260.916 123.852 257.973 123.332 255.008C122.818 252.055 122.36 249.085 121.981 246.111C121.597 243.136 121.29 240.151 121.046 237.156C120.807 234.161 120.625 231.166 120.635 228.14C120.646 228.186 120.661 228.233 120.672 228.279C121.425 231.155 121.997 234.063 122.511 236.97C123.031 239.929 123.488 242.893 123.867 245.873C124.252 248.847 124.564 251.827 124.803 254.822C125.042 257.776 125.218 260.73 125.213 263.715V263.844ZM129.5 264.708C128.726 261.77 128.144 258.805 127.624 255.831C127.105 252.867 126.658 249.887 126.279 246.897C125.899 243.912 125.593 240.912 125.354 237.906C125.115 234.901 124.938 231.89 124.948 228.848C124.959 228.895 124.974 228.947 124.985 228.993C125.738 231.885 126.315 234.797 126.819 237.725C127.333 240.689 127.791 243.674 128.165 246.659C128.549 249.649 128.856 252.644 129.095 255.65C129.334 258.614 129.505 261.578 129.5 264.568V264.708ZM133.777 265.567C133.008 262.618 132.431 259.638 131.917 256.659C131.397 253.674 130.95 250.684 130.576 247.683C130.202 244.683 129.9 241.672 129.656 238.656C129.422 235.635 129.251 232.609 129.266 229.562C129.282 229.619 129.292 229.671 129.308 229.728C130.051 232.619 130.623 235.542 131.127 238.47C131.641 241.455 132.088 244.445 132.462 247.445C132.847 250.446 133.143 253.457 133.387 256.478C133.621 259.442 133.792 262.416 133.777 265.411V265.567ZM138.059 266.431C137.295 263.461 136.718 260.482 136.204 257.481C135.694 254.486 135.242 251.48 134.879 248.47C134.499 245.449 134.203 242.428 133.964 239.401C133.735 236.37 133.564 233.328 133.579 230.271C133.595 230.328 133.605 230.379 133.621 230.436C134.369 233.349 134.93 236.282 135.429 239.22C135.944 242.215 136.391 245.221 136.765 248.237C137.144 251.248 137.44 254.269 137.679 257.3C137.908 260.28 138.074 263.259 138.059 266.27V266.431ZM142.346 267.289C141.582 264.315 141.005 261.314 140.496 258.304C139.987 255.298 139.54 252.277 139.176 249.251C138.802 246.225 138.506 243.193 138.277 240.146C138.043 237.104 137.877 234.052 137.892 230.985C137.908 231.042 137.924 231.099 137.934 231.155C138.677 234.073 139.243 237.016 139.742 239.97C140.252 242.976 140.693 245.992 141.062 249.023C141.436 252.049 141.733 255.081 141.966 258.128C142.195 261.118 142.361 264.118 142.346 267.134V267.289ZM146.628 268.153C145.869 265.163 145.292 262.147 144.788 259.126C144.279 256.1 143.837 253.074 143.473 250.037C143.104 246.995 142.813 243.948 142.585 240.891C142.351 237.839 142.19 234.777 142.216 231.688C142.226 231.74 142.242 231.787 142.252 231.838C142.99 234.782 143.551 237.746 144.05 240.715C144.554 243.741 144.996 246.773 145.365 249.81C145.734 252.851 146.025 255.893 146.259 258.95C146.482 261.951 146.648 264.956 146.628 267.988V268.153ZM150.909 269.012C150.151 266.012 149.579 262.985 149.08 259.954C148.576 256.912 148.135 253.876 147.771 250.818C147.407 247.771 147.116 244.709 146.893 241.646C146.664 238.574 146.498 235.501 146.529 232.402C146.539 232.449 146.555 232.495 146.565 232.542C147.303 235.506 147.864 238.48 148.358 241.471C148.857 244.502 149.299 247.544 149.662 250.596C150.031 253.643 150.322 256.705 150.551 259.778C150.769 262.794 150.93 265.825 150.909 268.872V269.012ZM155.196 269.881C154.438 266.86 153.871 263.818 153.372 260.776C152.868 257.724 152.432 254.672 152.073 251.605C151.71 248.542 151.419 245.474 151.2 242.391C150.972 239.308 150.816 236.22 150.842 233.116C150.857 233.173 150.868 233.219 150.883 233.276C151.616 236.241 152.172 239.225 152.666 242.221C153.165 245.262 153.601 248.32 153.96 251.387C154.329 254.445 154.614 257.523 154.843 260.601C155.061 263.637 155.217 266.674 155.196 269.736V269.881ZM176.772 266.519C176.055 267.496 175.254 268.396 174.407 269.255C173.987 269.684 173.55 270.098 173.114 270.507C172.646 270.936 172.178 271.288 171.695 271.655C170.718 272.369 169.684 273.031 168.53 273.507C167.954 273.735 167.335 273.916 166.691 273.978C166.046 274.035 165.355 273.947 164.742 273.663C164.124 273.378 163.62 272.918 163.225 272.411C162.84 271.893 162.554 271.324 162.321 270.745C161.863 269.596 161.614 268.396 161.416 267.212C161.214 266.017 161.1 264.827 160.975 263.653L160.595 260.104L159.826 253.022L158.293 238.837L157.53 231.75L157.343 229.981L157.244 229.091C157.213 228.796 157.187 228.455 157.187 228.134C157.187 227.814 157.218 227.472 157.249 227.177L157.353 226.293L157.55 224.524L159.161 210.349L162.503 182.57V155.639H163.926L164.171 163.388L186.91 160.615C187.102 161.836 187.139 163.021 186.344 163.352L164.311 168.975C164.311 168.975 164.373 171.282 164.462 174.252L182.581 169.984C182.768 171.22 182.789 172.389 181.963 172.674L164.607 179.12L164.706 182.891C163.843 192.363 162.882 201.214 161.78 210.655L159.977 224.803L159.754 226.572L159.639 227.457C159.619 227.622 159.608 227.71 159.598 227.824L159.577 228.15C159.577 228.264 159.577 228.372 159.587 228.481C159.593 228.595 159.598 228.683 159.613 228.848L159.696 229.738L159.868 231.507L160.533 238.605L161.198 245.702C161.427 248.071 161.604 250.441 161.801 252.81L162.383 259.913L162.674 263.466L162.825 265.246C162.882 265.815 162.939 266.394 163.017 266.963C163.173 268.091 163.386 269.198 163.75 270.191C164.108 271.179 164.649 272.017 165.35 272.369C166.031 272.752 167.044 272.664 168.047 272.297C169.055 271.935 170.048 271.36 170.993 270.714C171.232 270.548 171.466 270.383 171.705 270.212L172.053 269.953L172.142 269.886L172.163 269.871L172.173 269.855L172.194 269.84L172.36 269.7C172.802 269.317 173.243 268.924 173.664 268.52C174.517 267.719 175.322 266.881 176.039 265.975C177.479 264.175 178.585 262.09 178.98 259.794L179.567 259.871C179.271 262.287 178.216 264.584 176.772 266.519ZM174.641 206.237C174.844 207.406 175.156 208.549 175.592 209.63C175.592 209.63 174.802 209.429 173.966 208.823C173.129 208.218 172.235 207.199 172.043 205.564C171.913 204.524 171.757 202.041 171.924 200.686C172.199 198.337 173.722 196.873 175.592 196.082C175.119 197.251 174.782 198.565 174.574 199.941C174.563 200.014 174.553 200.086 174.543 200.164C174.475 200.681 174.423 201.198 174.392 201.731C174.376 202.047 174.366 202.362 174.361 202.683C174.35 203.862 174.439 205.062 174.641 206.237ZM189.867 203.578C189.773 206.314 189.16 208.818 188.219 210.784C187.773 211.705 187.243 212.501 186.671 213.143C186.141 213.738 185.564 214.193 184.961 214.483C184.447 214.731 183.922 214.881 183.371 214.881H183.257C183.221 214.881 183.184 214.865 183.137 214.865C182.8 214.84 182.462 214.762 182.129 214.638C182.098 214.627 182.057 214.612 182.025 214.596C181.734 214.467 181.449 214.291 181.163 214.089C181.085 214.022 181.012 213.976 180.934 213.908C180.664 213.681 180.404 213.427 180.149 213.122C179.994 212.92 179.832 212.713 179.671 212.486C179.474 212.186 179.276 211.875 179.095 211.524C179.058 211.462 179.037 211.394 179.006 211.332C178.996 211.306 178.98 211.291 178.98 211.27C178.866 211.063 178.762 210.846 178.663 210.613C178.492 210.204 178.352 209.785 178.206 209.341C178.18 209.232 178.138 209.134 178.112 209.025L177.998 208.606C177.962 208.466 177.925 208.321 177.894 208.182C177.868 208.073 177.847 207.975 177.827 207.877C177.79 207.711 177.759 207.535 177.728 207.37C177.686 207.158 177.655 206.945 177.624 206.728C177.608 206.614 177.588 206.485 177.572 206.361C177.567 206.32 177.567 206.278 177.556 206.247C177.556 206.154 177.541 206.071 177.536 205.973C177.515 205.787 177.489 205.595 177.473 205.404C177.463 205.316 177.463 205.218 177.458 205.135C177.453 204.985 177.447 204.835 177.442 204.695C177.437 204.524 177.427 204.359 177.427 204.199C177.421 204.131 177.427 204.059 177.427 203.981C177.427 203.707 177.421 203.438 177.427 203.159C177.437 203.148 177.437 203.133 177.437 203.112C177.447 202.771 177.463 202.424 177.489 202.083C177.499 202.047 177.499 202 177.504 201.964C177.515 201.871 177.525 201.783 177.541 201.69C177.572 201.322 177.629 200.95 177.686 200.583C177.733 200.267 177.79 199.962 177.853 199.667C177.936 199.253 178.04 198.855 178.144 198.467C178.17 198.4 178.185 198.332 178.206 198.26C178.315 197.908 178.429 197.577 178.549 197.241C178.549 197.23 178.554 197.22 178.554 197.215C178.653 196.956 178.757 196.703 178.861 196.454C178.892 196.398 178.908 196.335 178.939 196.279C179.64 194.716 180.544 193.48 181.568 192.714C181.578 192.714 181.584 192.714 181.594 192.699C181.771 192.569 181.947 192.445 182.129 192.347C182.353 192.233 182.571 192.135 182.8 192.057C182.904 192.021 183.023 191.99 183.132 191.964C183.221 191.944 183.298 191.928 183.387 191.907C183.569 191.887 183.745 191.861 183.927 191.861H184.042C184.099 191.861 184.156 191.876 184.213 191.887C184.603 191.923 184.982 192.021 185.341 192.182C185.439 192.233 185.533 192.285 185.626 192.337C188.204 193.77 190.033 198.363 189.867 203.578ZM198.706 183.227V156.446C197.334 156.348 195.946 156.249 194.549 156.156V185.038L195.245 185.653C198.862 188.85 198.659 194.53 198.399 201.721L198.347 203.123C198.233 206.676 197.469 210.132 196.139 213.122L195.895 213.676L196.004 214.374C196.315 216.35 196.295 219.118 195.962 221.104L188.193 267.098C187.508 271.086 184.696 274.806 181.022 276.58L180.654 276.756L180.378 277.061C180.046 277.429 179.692 277.78 179.323 278.096C172.713 283.776 165.246 284.391 162.341 284.391C162.102 284.391 161.879 284.386 161.682 284.381H161.562L161.437 284.391C160.263 284.495 159.094 284.402 157.925 284.128L121.851 275.84C117.185 274.764 113.428 270.9 112.508 266.229L105.997 233.235L103.918 222.946C103.581 221.275 103.472 219.568 103.576 217.866C103.576 217.442 103.607 217.017 103.659 216.604L105.628 202.047L105.114 201.369C102.625 198.079 101.336 193.816 101.492 189.362C101.518 188.586 101.533 187.872 101.544 187.215C101.627 182.922 101.653 181.623 104.319 179.285L105.228 178.483L104.994 177.387C104.895 176.166 104.843 166.094 104.833 156.198C103.435 156.291 102.048 156.394 100.676 156.498C100.681 169.498 100.754 174.971 100.821 176.874C97.5269 180.102 97.4697 182.818 97.3866 187.133C97.3762 187.779 97.3606 188.472 97.3398 189.223C97.158 194.308 98.5558 199.222 101.284 203.154L100.172 211.384L99.4963 216.324C99.2053 218.476 99.2729 220.664 99.7042 222.791L99.7769 223.137C99.7769 223.184 99.7873 223.23 99.7977 223.277L108.429 267.031C109.66 273.269 114.675 278.432 120.916 279.875L156.974 288.157C158.132 288.432 159.322 288.571 160.502 288.571C160.892 288.571 161.292 288.556 161.682 288.525C161.884 288.525 162.108 288.53 162.341 288.53C165.709 288.53 174.371 287.816 182.051 281.22C182.446 280.874 182.836 280.506 183.2 280.124C187.928 277.692 191.4 273.006 192.288 267.786L200.062 221.792C200.447 219.506 200.488 216.598 200.182 214.239C201.574 210.903 202.374 207.121 202.504 203.257L202.551 201.871C202.826 194.302 203.06 187.712 198.706 183.227ZM226.215 159.276C226.304 159.291 226.387 159.301 226.475 159.317C226.491 159.322 226.506 159.322 226.522 159.327V159.317C226.418 159.301 226.319 159.291 226.215 159.276Z" fill="#283375"/>
<path d="M285.71 122.143C285.326 121.455 284.614 120.178 276.268 118.926C272.47 118.351 266.125 117.684 257.244 117.591V100.603C257.244 96.8729 254.568 93.7897 250.874 93.2207C238.548 91.3377 224.123 89.822 213.735 88.7977V53.6623H206.684V53.595C206.668 52.5035 206.455 47.8167 203.768 44.1335C204.356 42.3332 204.761 39.8605 204.288 36.8343C204.87 35.3031 205.177 33.658 205.177 32.0078C205.177 25.7225 200.9 20.4667 195.236 19.2666C194.425 19.0907 193.583 18.9976 192.726 18.9976C190.622 18.9976 188.569 19.5562 186.729 20.6219C185.394 20.9478 182.868 21.7445 180.67 23.4567C179.377 22.6704 178.114 22.1221 177.308 21.8065C174.934 19.8822 172.398 19.0441 170.751 18.6768C166.905 15.1074 162.083 12.5778 156.725 11.538C154.938 11.1862 153.088 11 151.196 11C143.262 11 136.075 14.228 130.879 19.4321H130.873C129.268 19.9753 127.896 20.803 127.09 21.3513C124.835 22.0652 123.126 23.1257 122.175 23.8033C119.878 21.8583 117.119 20.9788 115.695 20.6322C114.541 19.9649 113.299 19.4993 112.016 19.2407C111.247 19.0855 110.457 19.0027 109.662 19.0027C102.818 19.0027 97.2476 24.8328 97.2476 32.0026C97.2476 33.658 97.5542 35.2979 98.1414 36.8343C97.6633 39.8605 98.0686 42.3332 98.6558 44.1335C98.635 44.1593 98.5103 44.3352 98.5103 44.3352C98.3284 44.5939 98.1517 44.8784 97.9855 45.1577C97.9491 45.2198 97.9127 45.2819 97.8919 45.3129C97.7412 45.5819 97.5957 45.8561 97.4658 46.1251L97.3827 46.2958C97.258 46.5596 97.1436 46.8235 97.0397 47.0821L96.9774 47.2477C96.8734 47.5063 96.7799 47.765 96.6968 48.0133L96.65 48.1685C96.5668 48.4168 96.4941 48.6703 96.4213 48.9289L96.3902 49.0427C96.3278 49.291 96.2655 49.5342 96.2083 49.7928L96.1927 49.8549C96.1511 50.067 96.1044 50.2687 96.0628 50.5119L96.0472 50.605C96.0056 50.8222 95.9745 51.0292 95.9433 51.2413L95.9277 51.324C95.9017 51.5206 95.8809 51.7017 95.8549 51.9138V51.9862C95.829 52.1569 95.8134 52.3069 95.7978 52.4983V52.5552C95.7822 52.6949 95.777 52.8242 95.7666 52.9587C95.7666 52.9587 95.751 53.2432 95.751 53.2846V53.6002L95.7458 53.6623H86.2728V88.7977C75.8852 89.822 61.4548 91.3377 49.129 93.2207C45.4344 93.7897 42.7582 96.9039 42.7582 100.639V117.586C33.8776 117.679 27.5328 118.351 23.7394 118.926C15.3888 120.178 14.6769 121.455 14.2976 122.143C13.8871 122.878 13.9079 123.737 14.3496 124.445C15.2174 125.827 21.0217 130.239 24.0045 130.767C24.2123 130.808 24.4046 130.829 24.5864 130.829C26.0674 130.829 27.299 130.12 28.2863 129.556C28.5513 129.401 28.9358 129.179 29.2424 129.039C30.2037 130.425 32.3914 135.904 32.3914 149.023C32.3914 156.389 31.8874 160.543 30.8949 161.371C30.5155 161.686 29.2372 161.495 28.068 161.288C26.6286 161.04 25.1529 161.567 24.2175 162.679C23.2458 163.828 21.3907 166.063 19.8681 168.121C17.1712 171.763 16.5892 173.295 17.3687 174.676C17.6649 175.203 18.252 175.721 19.0887 175.84C19.2186 175.86 19.3537 175.871 19.494 175.871C19.6343 175.871 19.7798 175.86 19.9305 175.84C20.7203 175.721 22.0298 175.364 24.0096 174.826C29.1021 173.434 37.6242 171.112 44.3016 171.112C47.2167 171.112 50.532 171.681 53.5979 172.265C54.0344 172.348 54.4605 172.431 54.8866 172.513C55.5725 172.648 56.2377 172.777 56.882 172.896C61.3769 173.734 64.6766 174.133 66.6408 172.519C67.2748 172.001 68.0283 171.039 68.0283 169.425V160.031C69.8366 159.803 71.6398 159.529 73.4429 159.317C73.4533 159.317 73.4689 159.317 73.4793 159.317C73.6612 159.296 73.8378 159.27 74.0197 159.244C82.1001 157.982 90.2013 156.937 98.3128 156.079C98.318 156.073 98.318 156.068 98.318 156.068C99.1027 155.98 99.8925 155.892 100.677 155.81V156.503C102.049 156.399 103.436 156.296 104.834 156.203V155.411L111.927 154.806L111.901 155.758C123.952 155.075 136.745 154.708 150.001 154.708C163.257 154.708 177.272 155.111 189.816 155.856C191.406 155.954 192.986 156.053 194.55 156.161C195.948 156.254 197.335 156.353 198.707 156.451C208.528 157.191 217.757 158.143 226.217 159.281C226.321 159.296 226.419 159.307 226.523 159.322C226.523 159.322 226.549 159.322 226.565 159.322C228.363 159.534 230.171 159.808 231.974 160.036V169.43C231.974 171.044 232.733 172.006 233.367 172.524C235.326 174.138 238.631 173.739 243.126 172.901C243.765 172.782 244.43 172.653 245.121 172.519C245.542 172.436 245.973 172.353 246.405 172.27C249.476 171.686 252.791 171.117 255.706 171.117C262.378 171.117 270.906 173.439 275.998 174.831C277.973 175.369 279.282 175.726 280.077 175.845C280.228 175.866 280.374 175.876 280.509 175.876C280.654 175.876 280.784 175.866 280.914 175.845C281.756 175.726 282.338 175.209 282.639 174.681C283.413 173.3 282.831 171.768 280.14 168.127C278.612 166.068 276.757 163.833 275.79 162.685C274.85 161.572 273.379 161.045 271.94 161.293C270.771 161.5 269.487 161.691 269.113 161.376C268.12 160.548 267.616 156.394 267.616 149.028C267.616 135.909 269.799 130.431 270.765 129.044C271.067 129.184 271.451 129.406 271.722 129.561C272.709 130.125 273.94 130.834 275.421 130.834C275.598 130.834 275.796 130.813 276.003 130.772C278.986 130.244 284.785 125.832 285.658 124.45C286.1 123.742 286.116 122.883 285.71 122.148V122.143ZM56.8197 168.67C56.4403 168.597 56.0662 168.525 55.718 168.458C55.2607 168.37 54.7931 168.282 54.3202 168.189C51.0776 167.573 47.5389 166.963 44.26 166.963C37.1409 166.963 28.4474 169.306 23.1263 170.755C24.1448 169.373 25.5686 167.563 27.4133 165.38C29.3359 165.716 31.7211 166.125 33.6074 164.552C35.8314 162.69 36.5849 158.774 36.5849 149.028C36.5849 134.745 34.0283 125.356 30.0375 124.797C29.8972 124.771 29.7569 124.761 29.6114 124.761C28.2603 124.761 27.1483 125.397 26.1662 125.961C25.6101 126.282 24.9814 126.644 24.602 126.68C23.7342 126.478 21.5518 125.097 19.8837 123.871C23.4848 122.997 31.1183 121.859 42.7582 121.735V163.533H42.7946L43.1895 163.548L44.7432 163.605C48.5886 163.74 51.8883 164.107 54.606 164.63C60.5974 165.783 63.7776 167.666 63.8296 169.373C62.8111 169.751 59.5114 169.182 56.8197 168.67ZM63.8296 164.309C61.6523 163.062 58.8514 162.209 55.9726 161.619L63.8296 160.584V164.309ZM153.53 149.229C152.355 149.229 151.181 149.219 150.001 149.219C126.353 149.219 102.704 150.916 79.2369 154.304V154.289C78.712 154.366 78.1872 154.439 77.6624 154.516H77.6416V154.672H77.6V154.666L75.2876 154.925C65.9081 155.991 56.3988 157.268 46.9829 158.743C46.9725 158.743 46.9621 158.748 46.9517 158.748V100.644C46.9517 98.999 48.1781 97.5712 49.7993 97.3229C62.7851 95.3365 78.1508 93.7587 88.5748 92.7448L90.4715 92.5637V57.8111H99.9081V53.6364C99.9081 53.6054 99.9081 53.5536 99.9081 53.4967V53.4657C99.9081 53.4036 99.9133 53.326 99.9185 53.2381V53.1812C99.9289 53.088 99.9341 52.9898 99.9393 52.8811C99.9445 52.8553 99.9445 52.8294 99.9497 52.8035C99.9601 52.6897 99.9705 52.5656 99.9861 52.4311C99.9861 52.4052 99.9913 52.3742 99.9913 52.3483C100.007 52.2086 100.028 52.0638 100.048 51.9138C100.054 51.8827 100.059 51.8569 100.059 51.8258C100.085 51.6655 100.111 51.5051 100.142 51.3292C100.147 51.3085 100.152 51.2826 100.152 51.262C100.184 51.0912 100.22 50.9154 100.256 50.7395C100.261 50.7188 100.267 50.6929 100.272 50.6722C100.313 50.486 100.36 50.2946 100.412 50.1032C100.423 50.067 100.428 50.0359 100.438 50.0049C100.49 49.8135 100.547 49.6221 100.61 49.4255C100.625 49.3893 100.636 49.3531 100.646 49.3169C100.708 49.1255 100.781 48.9289 100.859 48.7375C100.869 48.6961 100.885 48.6599 100.901 48.6185C100.979 48.4271 101.067 48.2305 101.155 48.0391C101.171 48.0029 101.192 47.9667 101.207 47.9305C101.301 47.7339 101.405 47.5425 101.509 47.3563C101.529 47.3201 101.55 47.289 101.571 47.2528C101.68 47.0614 101.8 46.8752 101.93 46.6941C101.95 46.6631 101.971 46.6372 101.992 46.6062C102.122 46.42 102.267 46.2389 102.418 46.063C102.434 46.0423 102.454 46.0216 102.47 46.001C102.631 45.8251 102.797 45.6492 102.974 45.4836C102.99 45.4733 103 45.463 103.016 45.4526C103.203 45.2819 103.4 45.1215 103.613 44.9715C103.613 44.9715 101.192 41.8004 102.46 36.4101L102.486 36.3842C101.8 35.091 101.41 33.6011 101.41 32.013C101.41 27.0986 105.12 23.1153 109.693 23.1153C110.291 23.1153 110.873 23.1877 111.434 23.3171C112.385 23.5447 113.278 23.9482 114.079 24.4914C114.079 24.4914 114.089 24.4914 114.11 24.4914C114.11 24.4965 114.115 24.4965 114.115 24.4965H114.12C114.12 24.4965 114.162 24.5017 114.235 24.5172C115.102 24.6931 119.337 25.6967 121 28.8005C121 28.8005 121.005 28.7953 121.011 28.7902C121.011 28.7902 121.021 28.785 121.026 28.7798C121.031 28.7902 121.037 28.7953 121.042 28.8057H121.047V28.8005C121.12 28.7333 121.785 28.1901 124.087 27.5486C124.087 27.5486 125.984 25.8933 128.951 25.0966C128.951 25.0966 131.014 23.5136 133.118 23.0739H133.17C137.655 18.2061 144.088 15.1488 151.222 15.1488C152.927 15.1488 154.59 15.3247 156.201 15.6558C161.033 16.6593 165.346 19.0907 168.682 22.4842C168.688 22.4842 168.708 22.4842 168.724 22.4842C168.724 22.4842 168.729 22.4842 168.729 22.4894C168.807 22.4945 169.166 22.5308 169.701 22.6446C170.969 22.9136 173.198 23.6171 175.141 25.3915C175.141 25.3915 177.584 26.1778 179.512 27.6624C179.512 27.6624 180.717 28.0297 181.569 28.4436H181.575C181.575 28.4436 181.601 28.4487 181.611 28.4539C183.601 25.2777 188.335 24.4862 188.335 24.4862C188.974 24.0516 189.676 23.705 190.414 23.4723C191.157 23.2343 191.941 23.105 192.757 23.105C193.318 23.105 193.869 23.167 194.399 23.2809C198.167 24.1189 201.004 27.6987 201.004 31.9923C201.004 33.5856 200.609 35.0703 199.928 36.3635L199.954 36.3894C201.217 41.7797 198.801 44.9508 198.801 44.9508C202.345 47.4649 202.5 53.0467 202.506 53.626V57.7955H202.547V57.8059H209.526V92.5585L211.417 92.7396C221.847 93.7535 237.207 95.3313 250.193 97.3177C251.819 97.5661 253.046 98.9938 253.046 100.639V158.608C229.922 153.058 194.025 149.421 153.519 149.224L153.53 149.229ZM244.03 161.619C241.156 162.209 238.356 163.062 236.173 164.309V160.584L244.03 161.619ZM275.401 126.68C275.026 126.644 274.398 126.282 273.842 125.961C272.86 125.397 271.748 124.761 270.391 124.761C270.251 124.761 270.111 124.771 269.97 124.797C265.974 125.356 263.418 134.745 263.418 149.028C263.418 158.774 264.171 162.69 266.4 164.552C268.287 166.125 270.667 165.716 272.589 165.38C274.434 167.563 275.858 169.373 276.876 170.755C271.555 169.306 262.862 166.963 255.743 166.963C252.469 166.963 248.93 167.573 245.682 168.189C245.21 168.282 244.747 168.37 244.29 168.458C243.936 168.525 243.568 168.597 243.183 168.67C240.496 169.182 237.192 169.751 236.173 169.373C236.23 167.666 239.41 165.783 245.397 164.63C248.12 164.107 251.414 163.74 255.265 163.605L256.818 163.548L257.208 163.538V163.528H257.244V121.735C268.884 121.859 276.523 122.997 280.119 123.871C278.451 125.097 276.274 126.478 275.401 126.68Z" fill="#283375"/>
<path d="M73.4415 159.317C71.602 159.565 69.7936 159.824 68.0269 160.093V160.031C69.8352 159.803 71.6383 159.529 73.4415 159.317Z" fill="#283375"/>
<path d="M100.676 155.804V156.498C91.1713 157.217 82.2388 158.143 74.0181 159.239C82.0985 157.977 90.1996 156.932 98.3112 156.073C98.3164 156.068 98.3164 156.063 98.3164 156.063C99.101 155.975 99.8909 155.887 100.676 155.804Z" fill="#283375"/>
<path d="M104.833 155.406L111.926 154.801L111.9 155.753C109.515 155.887 107.156 156.037 104.833 156.198V155.406Z" fill="#283375"/>
<path d="M46.9814 158.608C70.7757 152.897 108.075 149.219 150 149.219C126.351 149.219 102.702 150.916 79.2355 154.304V154.289C78.7106 154.366 78.1858 154.439 77.661 154.516H77.6402V154.672H77.5986V154.666L75.2862 154.925C65.9067 155.991 56.3973 157.269 46.9814 158.743V158.608Z" fill="#283375"/>
<path d="M231.973 160.031V160.098C230.196 159.829 228.377 159.565 226.522 159.317C226.522 159.317 226.548 159.317 226.564 159.317C228.361 159.529 230.17 159.803 231.973 160.031Z" fill="#283375"/>
</g>
<defs>
<clipPath id="clip0_302_795">
<rect width="272" height="278" fill="white" transform="translate(14 11)"/>
</clipPath>
</defs>
</svg>
